<svg width="429" height="429" viewBox="0 0 429 429" fill="none" xmlns="http://www.w3.org/2000/svg">
<path d="M216.1 413.5C326.557 413.5 416.1 323.957 416.1 213.5C416.1 103.043 326.557 13.5 216.1 13.5C105.643 13.5 16.1001 103.043 16.1001 213.5C16.1001 323.957 105.643 413.5 216.1 413.5Z" fill="white"/>
<path d="M216.1 392.8C315.125 392.8 395.4 312.525 395.4 213.5C395.4 114.475 315.125 34.2 216.1 34.2C117.076 34.2 36.8003 114.475 36.8003 213.5C36.8003 312.525 117.076 392.8 216.1 392.8Z" stroke="black" stroke-width="0.8" stroke-miterlimit="10"/>
<path d="M134.2 322.8L104.5 338.6L101.3 335.3L113 314.6L92.0999 325.9L88.8999 322.7L105.2 293.3L109 297.1L96.9999 318.1L118.2 306.5L121.1 309.4L109.2 330.5L130.4 318.9L134.2 322.8Z" fill="black"/>
<path d="M129.4 357C126.8 355.5 125 353.6 123.8 351.3C122.6 349 122.1 346.6 122.4 343.8C122.7 341.1 123.7 338.2 125.4 335.3C127.2 332.3 129.2 330.1 131.6 328.6C133.9 327.1 136.3 326.3 138.9 326.3C141.5 326.3 144 327.1 146.5 328.6C149 330.1 150.9 332 152 334.3C153.2 336.5 153.6 339 153.4 341.8C153.1 344.5 152.1 347.4 150.3 350.4C148.5 353.4 146.5 355.6 144.2 357.1C141.9 358.6 139.5 359.4 137 359.4C134.5 359.3 132 358.5 129.4 357ZM131.8 353.1C133.3 354 134.8 354.4 136.3 354.4C137.8 354.4 139.3 353.8 140.8 352.6C142.3 351.5 143.7 349.7 145.2 347.3C146.7 344.9 147.6 342.7 147.9 340.8C148.2 338.9 148.1 337.3 147.4 335.9C146.7 334.5 145.7 333.4 144.2 332.5C142.7 331.6 141.2 331.2 139.6 331.2C138.1 331.3 136.5 331.9 135 333.1C133.5 334.3 132 336.1 130.5 338.5C129.1 340.9 128.2 343 127.9 344.9C127.6 346.8 127.8 348.4 128.5 349.7C129.2 351.1 130.3 352.2 131.8 353.1Z" fill="black"/>
<path d="M174.8 376L169.4 374.2L168.3 360L161.1 357.6L156.9 370L151.7 368.3L162 337.7L174.5 341.9C176.9 342.7 178.7 343.7 180 344.9C181.3 346.1 182.1 347.5 182.4 349.1C182.7 350.7 182.5 352.3 182 354.1C181.5 355.7 180.7 357 179.8 357.9C178.9 358.8 177.9 359.5 176.8 359.9C175.7 360.3 174.6 360.6 173.5 360.7L174.8 376ZM168.6 355.6C170.6 356.3 172.2 356.3 173.6 355.8C175 355.3 176 354.2 176.5 352.6C177 351 176.9 349.6 176.2 348.4C175.5 347.2 174.3 346.3 172.6 345.8L165.8 343.5L162.4 353.5L168.6 355.6Z" fill="black"/>
<path d="M189.2 346L194.7 346.7L191 374L205.5 375.9L204.9 380.5L184.9 377.8L189.2 346Z" fill="black"/>
<path d="M212.6 348.8C212.7 348.8 213.1 348.8 213.8 348.7C214.5 348.7 215.2 348.6 216.1 348.6C217 348.6 217.9 348.5 218.9 348.4C219.8 348.4 220.6 348.3 221.3 348.3C225.3 348.1 228.5 348.6 231 349.7C233.5 350.8 235.5 352.5 236.8 354.8C238.1 357.1 238.8 359.8 239 363.1C239.2 366.5 238.8 369.5 237.7 372C236.6 374.5 234.8 376.5 232.4 377.9C229.9 379.3 226.8 380.2 222.9 380.4L214.5 380.9L212.6 348.8ZM218.4 353L219.8 376.2L222.7 376C224.9 375.9 226.9 375.4 228.5 374.5C230.1 373.6 231.4 372.3 232.3 370.5C233.2 368.7 233.5 366.4 233.3 363.5C233.1 360.7 232.6 358.5 231.6 356.9C230.6 355.3 229.2 354.1 227.5 353.5C225.8 352.9 223.8 352.6 221.4 352.7L218.4 353Z" fill="black"/>
<path d="M276.7 336L277.2 369.6L272.8 371L259.7 351.2L260.2 375L255.9 376.3L237.2 348.4L242.3 346.8L255.5 367L254.9 342.8L258.8 341.6L272.1 361.8L271.5 337.6L276.7 336Z" fill="black"/>
<path d="M278.3 333.5L283.1 330.9L298.4 359.3L293.6 361.9L278.3 333.5Z" fill="black"/>
<path d="M288.4 328.3C288.5 328.2 288.8 328 289.4 327.6C289.9 327.2 290.5 326.7 291.3 326.2C292.1 325.7 292.8 325.1 293.5 324.5C294.3 323.9 294.9 323.5 295.5 323.1C298.7 320.8 301.7 319.4 304.4 318.9C307.1 318.4 309.7 318.8 312 319.9C314.3 321.1 316.5 323 318.5 325.6C320.6 328.4 321.9 331.1 322.3 333.7C322.8 336.4 322.4 339 321.1 341.5C319.9 344.1 317.7 346.5 314.5 348.9L307.8 354L288.4 328.3ZM295.6 328.5L309.6 347.1L311.9 345.3C313.7 344 315 342.5 315.9 340.8C316.8 339.2 317.1 337.4 316.8 335.4C316.5 333.4 315.5 331.3 313.8 329C312.1 326.8 310.4 325.3 308.7 324.5C307 323.7 305.2 323.5 303.4 323.9C301.6 324.3 299.8 325.2 297.9 326.6L295.6 328.5Z" fill="black"/>
<path d="M335.5 331.4L311.3 310.1L325.5 294L329 297.1L318.5 309.1L325.3 315.1L334.6 304.5L338 307.5L328.7 318.1L335.6 324.2L346.4 312L349.9 315.1L335.5 331.4Z" fill="black"/>
<path d="M216.1 336.5C284.031 336.5 339.1 281.431 339.1 213.5C339.1 145.569 284.031 90.5 216.1 90.5C148.169 90.5 93.1001 145.569 93.1001 213.5C93.1001 281.431 148.169 336.5 216.1 336.5Z" stroke="black" stroke-width="0.8" stroke-miterlimit="10"/>
<path d="M63.6001 151L72.2001 132.9L76.1001 134.8L69.7001 148.1L77.6001 151.9L83.2001 140.1L87.1001 141.9L81.5001 153.7L93.4001 159.4L91.2001 164.1L63.6001 151Z" fill="black"/>
<path d="M115.7 124.1L112.5 128.4L99.4 125.2L95.2 130.9L105.2 138.3L102.1 142.4L77.5 124.2L84.9 114.2C86.3 112.3 87.7 111 89.2 110.2C90.7 109.4 92.2 109.1 93.7 109.3C95.2 109.5 96.7 110.1 98.1 111.2C99.4 112.2 100.4 113.2 100.9 114.3C101.5 115.4 101.8 116.5 101.8 117.6C101.9 118.7 101.8 119.8 101.5 120.8L115.7 124.1ZM95.5 123.6C96.7 122 97.2 120.5 97.1 119.1C97 117.7 96.3 116.5 95.1 115.5C93.8 114.6 92.6 114.2 91.3 114.6C90 114.9 88.9 115.7 87.9 117.1L83.9 122.5L92 128.5L95.5 123.6Z" fill="black"/>
<path d="M119.1 120.7L98.5 97.9999L113.5 84.3999L116.5 87.6999L105.4 97.7999L111.2 104.1L121 95.1999L123.9 98.3999L114 107.3L119.9 113.8L131.3 103.5L134.3 106.8L119.1 120.7Z" fill="black"/>
<path d="M138.5 103.9L122.6 77.7L139.9 67.2L142.2 71L129.4 78.8L133.8 86.1L145.1 79.2L147.4 82.9L136 89.9L140.5 97.4L153.7 89.4L156 93.2L138.5 103.9Z" fill="black"/>
<path d="M179.1 85.2C177.7 85.6 176.2 85.8 174.8 85.9C173.3 85.9 172 85.8 170.6 85.4C169.3 85 168.1 84.4 167.1 83.5C166.1 82.6 165.3 81.5 164.7 80.2L169.8 78.7C170.3 79.6 171 80.3 171.8 80.8C172.6 81.3 173.6 81.6 174.6 81.7C175.7 81.8 176.8 81.7 177.9 81.3C179.1 80.9 180.2 80.5 181.1 79.9C182 79.3 182.6 78.6 183 77.8C183.4 77 183.5 76.2 183.2 75.3C183 74.5 182.6 73.9 182 73.4C181.4 73 180.7 72.7 179.8 72.5C178.9 72.4 178 72.3 176.9 72.4L171.2 72.8C168.9 73 166.9 72.6 165.3 71.7C163.7 70.8 162.5 69.3 161.9 67.1C161.4 65.3 161.4 63.6 162 62C162.6 60.4 163.6 59 165 57.8C166.4 56.6 168.2 55.7 170.3 55.1C172.7 54.4 174.9 54.2 176.8 54.5C178.7 54.8 180.3 55.5 181.5 56.6C182.7 57.7 183.6 59 184.1 60.6L179.1 62C178.6 60.9 178 60 177.3 59.5C176.5 59 175.6 58.7 174.7 58.7C173.7 58.7 172.7 58.8 171.6 59.1C170.8 59.3 170.1 59.6 169.4 60C168.7 60.4 168.2 60.8 167.8 61.4C167.4 61.9 167.1 62.5 167 63.1C166.9 63.7 166.9 64.3 167.1 65C167.4 65.9 167.9 66.6 168.7 67C169.5 67.4 170.8 67.6 172.7 67.5L178.3 67.2C180 67.1 181.5 67.2 182.7 67.5C183.9 67.9 184.9 68.4 185.6 69.1C186.4 69.8 187 70.5 187.4 71.3C187.8 72.1 188.2 72.9 188.4 73.7C188.8 75.2 188.8 76.8 188.2 78.3C187.6 79.8 186.6 81.2 185.1 82.4C183.4 83.6 181.5 84.5 179.1 85.2Z" fill="black"/>
<path d="M213.9 65.8L199.1 66.8L200 80.3L194.9 80.6L192.9 50.1L198 49.8L198.8 62.4L213.6 61.4L212.8 48.8L217.9 48.5L219.9 79L214.8 79.3L213.9 65.8Z" fill="black"/>
<path d="M229 49.3999L234.1 49.8999L231.2 80.2999L226.1 79.7999L229 49.3999Z" fill="black"/>
<path d="M237.7 80.9L244.8 51.2L255.3 53.7C257.4 54.2 259.3 55 260.8 56.2C262.3 57.3 263.4 58.7 264 60.4C264.6 62.1 264.7 63.9 264.2 66C263.7 68 262.9 69.5999 261.7 70.6999C260.5 71.8999 259 72.7 257.2 73C255.4 73.4 253.5 73.3 251.4 72.8L245.3 71.3L242.7 82.0999L237.7 80.9ZM246.3 67.3L252.3 68.8C254 69.2 255.6 69 256.9 68.3C258.3 67.5 259.1 66.2999 259.5 64.5999C259.9 62.8999 259.6 61.4 258.7 60.2C257.8 59 256.4 58.2 254.7 57.7L248.8 56.2999L246.3 67.3Z" fill="black"/>
<path d="M262.7 87.5L275.4 59.7L285.3 64.1999C287.3 65.0999 288.9 66.2999 290.2 67.6999C291.5 69.0999 292.3 70.7 292.6 72.4C292.9 74.2 292.6 76 291.7 77.9C290.9 79.7 289.7 81.0999 288.3 82.0999C286.9 82.9999 285.3 83.5 283.5 83.5C281.7 83.5 279.8 83.0999 277.9 82.1999L272.2 79.5999L267.6 89.6999L262.7 87.5ZM273.8 75.9L279.5 78.5C281.1 79.2 282.7 79.4 284.2 78.9C285.7 78.4 286.8 77.4 287.5 75.8C288.2 74.2 288.3 72.7 287.6 71.4C286.9 70 285.8 68.9999 284.1 68.1999L278.6 65.6999L273.8 75.9Z" fill="black"/>
<path d="M302.7 73.6001L307 76.4001L290.5 102.2L286.2 99.4001L302.7 73.6001Z" fill="black"/>
<path d="M331.3 95.7999L335.1 99.1999L314.8 122L311.3 118.9L314.8 91.8999L299.9 108.6L296.1 105.2L316.5 82.3999L320.3 85.7999L316.9 112.1L331.3 95.7999Z" fill="black"/>
<path d="M325.1 136.3C323.5 134.1 322.7 131.8 322.5 129.4C322.4 127 322.9 124.7 324.2 122.5C325.5 120.3 327.4 118.2 330.1 116.3C332.8 114.4 335.4 113.2 338 112.8C340.6 112.4 343 112.6 345.2 113.6C347.4 114.5 349.3 116.1 350.9 118.4C351.9 119.8 352.5 121.2 352.9 122.7C353.3 124.2 353.4 125.7 353.2 127.1C353 128.5 352.6 129.9 352 131.1C351.4 132.3 350.5 133.3 349.5 134.1L346.4 129.7C347.1 128.9 347.7 128.1 348.1 127.1C348.5 126.1 348.6 125.1 348.5 124C348.4 122.9 348 121.9 347.3 120.9C346.4 119.6 345.3 118.7 344 118.2C342.7 117.7 341.1 117.6 339.4 118C337.7 118.4 335.7 119.4 333.5 120.9C331.8 122.1 330.5 123.3 329.6 124.5C328.7 125.7 328.1 126.8 327.8 127.9C327.5 129 327.5 130.1 327.8 131.1C328.1 132.1 328.5 133.1 329.1 134C329.7 134.9 330.4 135.5 331.2 136C332 136.5 332.8 136.7 333.6 136.9C334.4 137.1 335.2 137 335.9 136.9C336.6 136.8 337.3 136.5 337.9 136.2L339.8 135.1L335.9 129.5L338.9 127.4L345.9 137.4L332.9 146.6L330.8 143.6L334.3 141.1C333.4 141.1 332.4 141 331.3 140.8C330.2 140.6 329.2 140.1 328.2 139.4C327.1 138.7 326.1 137.7 325.1 136.3Z" fill="black"/>
<path fill-rule="evenodd" clip-rule="evenodd" d="M207 317.8C207 317.8 201.2 316.1 199.8 306.1C199.9 306.1 207.4 311.1 207 317.8Z" fill="black"/>
<path fill-rule="evenodd" clip-rule="evenodd" d="M206.7 319.2C206.7 319.2 205 325 195 326.4C195 326.4 200.1 318.9 206.7 319.2Z" fill="black"/>
<path fill-rule="evenodd" clip-rule="evenodd" d="M189.6 314.6C189.6 314.6 184.2 311.8 184.9 301.7C185 301.7 191.3 308.2 189.6 314.6Z" fill="black"/>
<path fill-rule="evenodd" clip-rule="evenodd" d="M189 316C189 316 186.2 321.4 176.1 320.7C176.1 320.7 182.6 314.3 189 316Z" fill="black"/>
<path fill-rule="evenodd" clip-rule="evenodd" d="M173.8 308.7C173.8 308.7 168.8 305.3 170.8 295.3C170.8 295.3 176.3 302.5 173.8 308.7Z" fill="black"/>
<path fill-rule="evenodd" clip-rule="evenodd" d="M173 310C173 310 169.6 315 159.6 313C159.6 313 166.8 307.5 173 310Z" fill="black"/>
<path fill-rule="evenodd" clip-rule="evenodd" d="M158.4 300C158.4 300 154.3 295.5 158.5 286.3C158.5 286.3 162.2 294.6 158.4 300Z" fill="black"/>
<path fill-rule="evenodd" clip-rule="evenodd" d="M157.3 301C157.3 301 152.8 305.1 143.6 300.9C143.6 300.9 151.9 297.2 157.3 301Z" fill="black"/>
<path fill-rule="evenodd" clip-rule="evenodd" d="M144.5 288.6C144.5 288.6 141.4 283.4 147.2 275.2C147.2 275.2 149.2 284 144.5 288.6Z" fill="black"/>
<path fill-rule="evenodd" clip-rule="evenodd" d="M143.2 289.4C143.2 289.4 138 292.5 129.8 286.7C129.8 286.7 138.6 284.7 143.2 289.4Z" fill="black"/>
<path fill-rule="evenodd" clip-rule="evenodd" d="M132.8 274.8C132.8 274.8 130.3 269.3 137 261.7C137 261.7 138 270.7 132.8 274.8Z" fill="black"/>
<path fill-rule="evenodd" clip-rule="evenodd" d="M131.4 275.4C131.4 275.4 125.9 277.9 118.3 271.2C118.4 271.2 127.4 270.2 131.4 275.4Z" fill="black"/>
<path fill-rule="evenodd" clip-rule="evenodd" d="M124 259.7C124 259.7 121.8 254 129.1 247C129.1 247 129.5 256.1 124 259.7Z" fill="black"/>
<path fill-rule="evenodd" clip-rule="evenodd" d="M122.6 260.3C122.6 260.3 116.9 262.5 109.9 255.2C109.9 255.3 119 254.8 122.6 260.3Z" fill="black"/>
<path fill-rule="evenodd" clip-rule="evenodd" d="M117.9 244.1C117.9 244.1 115.9 238.4 123.4 231.5C123.5 231.5 123.6 240.6 117.9 244.1Z" fill="black"/>
<path fill-rule="evenodd" clip-rule="evenodd" d="M116.5 244.6C116.5 244.6 110.8 246.6 103.9 239.1C104 239.1 113.1 239 116.5 244.6Z" fill="black"/>
<path fill-rule="evenodd" clip-rule="evenodd" d="M114.4 227.7C114.4 227.7 113.4 221.7 121.9 216.2C122 216.2 120.6 225.2 114.4 227.7Z" fill="black"/>
<path fill-rule="evenodd" clip-rule="evenodd" d="M113 228C113 228 107 229 101.5 220.5C101.5 220.5 110.5 221.8 113 228Z" fill="black"/>
<path fill-rule="evenodd" clip-rule="evenodd" d="M114 210.3C114 210.3 114.2 204.2 123.6 200.5C123.5 200.5 120.5 209 114 210.3Z" fill="black"/>
<path fill-rule="evenodd" clip-rule="evenodd" d="M112.5 210.3C112.5 210.3 106.4 210.1 102.7 200.8C102.6 200.8 111.2 203.8 112.5 210.3Z" fill="black"/>
<path fill-rule="evenodd" clip-rule="evenodd" d="M116.3 193.2C116.3 193.2 117.9 187.3 127.9 185.9C127.9 185.8 122.9 193.4 116.3 193.2Z" fill="black"/>
<path fill-rule="evenodd" clip-rule="evenodd" d="M114.8 192.8C114.8 192.8 108.9 191.2 107.5 181.2C107.5 181.3 115.1 186.2 114.8 192.8Z" fill="black"/>
<path fill-rule="evenodd" clip-rule="evenodd" d="M121.2 176.5C121.2 176.5 124.3 171.3 134.3 172.6C134.3 172.6 127.5 178.5 121.2 176.5Z" fill="black"/>
<path fill-rule="evenodd" clip-rule="evenodd" d="M119.9 175.8C119.9 175.8 114.7 172.7 116 162.7C116 162.6 121.9 169.5 119.9 175.8Z" fill="black"/>
<path fill-rule="evenodd" clip-rule="evenodd" d="M129.3 160.8C129.3 160.8 133.5 156.4 143 159.8C143 159.8 135 164.1 129.3 160.8Z" fill="black"/>
<path fill-rule="evenodd" clip-rule="evenodd" d="M128.2 159.8C128.2 159.8 123.8 155.6 127.2 146.1C127.2 146.1 131.5 154.1 128.2 159.8Z" fill="black"/>
<path fill-rule="evenodd" clip-rule="evenodd" d="M139.9 146.2C139.9 146.2 144.9 142.8 153.5 148.2C153.5 148.2 144.8 150.7 139.9 146.2Z" fill="black"/>
<path fill-rule="evenodd" clip-rule="evenodd" d="M139 145C139 145 135.6 140 141 131.4C141 131.4 143.5 140.2 139 145Z" fill="black"/>
<path fill-rule="evenodd" clip-rule="evenodd" d="M153.3 133.8C153.3 133.8 158.7 131 166.5 137.5C166.5 137.5 157.5 138.9 153.3 133.8Z" fill="black"/>
<path fill-rule="evenodd" clip-rule="evenodd" d="M152.5 132.5C152.5 132.5 149.7 127.1 156.2 119.3C156.2 119.3 157.6 128.3 152.5 132.5Z" fill="black"/>
<path fill-rule="evenodd" clip-rule="evenodd" d="M168.6 123.9C168.6 123.9 174.2 121.6 181.5 128.6C181.5 128.5 172.4 129.2 168.6 123.9Z" fill="black"/>
<path fill-rule="evenodd" clip-rule="evenodd" d="M167.9 122.5C167.9 122.5 165.6 116.9 172.6 109.6C172.6 109.6 173.3 118.6 167.9 122.5Z" fill="black"/>
<path d="M217 318.8C193.7 319.1 170 311.6 151.5 296.7C133.1 282 119.5 261 114.6 237.9C114.2 236.5 114 235 113.8 233.6L113.1 229.2C112.9 227.7 112.6 226.3 112.5 224.8L112.3 220.4C112.1 217.5 111.9 214.5 112.2 211.6L112.4 207.2L112.9 202.8C114.2 191.1 117.7 179.6 123 169.1C128.3 158.6 135.2 148.8 143.7 140.7C152.2 132.6 162 125.9 172.6 120.9C172.7 120.8 172.9 120.9 172.9 121C173 121.1 172.9 121.3 172.8 121.3C162.3 126.5 152.8 133.4 144.6 141.6C136.4 149.8 129.7 159.4 124.6 169.9C114.4 190.7 112 215 116.9 237.5C119.3 248.8 124 259.6 130 269.4C136.1 279.2 143.8 288 152.8 295.3C170.6 310 193.6 318.1 217 318.8Z" fill="black"/>
<path fill-rule="evenodd" clip-rule="evenodd" d="M226.7 317.8C226.7 317.8 232.5 316.1 233.9 306.1C233.8 306.1 226.3 311.1 226.7 317.8Z" fill="black"/>
<path fill-rule="evenodd" clip-rule="evenodd" d="M227 319.2C227 319.2 228.7 325 238.7 326.4C238.7 326.4 233.7 318.9 227 319.2Z" fill="black"/>
<path fill-rule="evenodd" clip-rule="evenodd" d="M244.1 314.6C244.1 314.6 249.5 311.8 248.8 301.7C248.8 301.7 242.4 308.2 244.1 314.6Z" fill="black"/>
<path fill-rule="evenodd" clip-rule="evenodd" d="M244.7 316C244.7 316 247.5 321.4 257.6 320.7C257.6 320.7 251.1 314.3 244.7 316Z" fill="black"/>
<path fill-rule="evenodd" clip-rule="evenodd" d="M259.9 308.7C259.9 308.7 264.9 305.3 262.9 295.3C263 295.3 257.5 302.5 259.9 308.7Z" fill="black"/>
<path fill-rule="evenodd" clip-rule="evenodd" d="M260.7 310C260.7 310 264.1 315 274.1 313C274.1 313 266.9 307.5 260.7 310Z" fill="black"/>
<path fill-rule="evenodd" clip-rule="evenodd" d="M275.3 300C275.3 300 279.4 295.5 275.2 286.3C275.2 286.3 271.5 294.6 275.3 300Z" fill="black"/>
<path fill-rule="evenodd" clip-rule="evenodd" d="M276.4 301C276.4 301 280.9 305.1 290.1 300.9C290.1 300.9 281.8 297.2 276.4 301Z" fill="black"/>
<path fill-rule="evenodd" clip-rule="evenodd" d="M289.2 288.6C289.2 288.6 292.3 283.4 286.5 275.2C286.5 275.2 284.5 284 289.2 288.6Z" fill="black"/>
<path fill-rule="evenodd" clip-rule="evenodd" d="M290.5 289.4C290.5 289.4 295.7 292.5 303.9 286.7C304 286.7 295.1 284.7 290.5 289.4Z" fill="black"/>
<path fill-rule="evenodd" clip-rule="evenodd" d="M300.9 274.8C300.9 274.8 303.4 269.3 296.7 261.7C296.7 261.7 295.7 270.7 300.9 274.8Z" fill="black"/>
<path fill-rule="evenodd" clip-rule="evenodd" d="M302.3 275.4C302.3 275.4 307.8 277.9 315.4 271.2C315.3 271.2 306.3 270.2 302.3 275.4Z" fill="black"/>
<path fill-rule="evenodd" clip-rule="evenodd" d="M309.7 259.7C309.7 259.7 311.9 254 304.6 247C304.6 247 304.2 256.1 309.7 259.7Z" fill="black"/>
<path fill-rule="evenodd" clip-rule="evenodd" d="M311.1 260.3C311.1 260.3 316.8 262.5 323.8 255.2C323.8 255.3 314.8 254.8 311.1 260.3Z" fill="black"/>
<path fill-rule="evenodd" clip-rule="evenodd" d="M315.8 244.1C315.8 244.1 317.8 238.4 310.3 231.5C310.3 231.5 310.2 240.6 315.8 244.1Z" fill="black"/>
<path fill-rule="evenodd" clip-rule="evenodd" d="M317.2 244.6C317.2 244.6 322.9 246.6 329.8 239.1C329.8 239.1 320.7 239 317.2 244.6Z" fill="black"/>
<path fill-rule="evenodd" clip-rule="evenodd" d="M319.3 227.7C319.3 227.7 320.3 221.7 311.8 216.2C311.8 216.2 313.1 225.2 319.3 227.7Z" fill="black"/>
<path fill-rule="evenodd" clip-rule="evenodd" d="M320.8 228C320.8 228 326.8 229 332.3 220.5C332.2 220.5 323.3 221.8 320.8 228Z" fill="black"/>
<path fill-rule="evenodd" clip-rule="evenodd" d="M319.8 210.3C319.8 210.3 319.6 204.2 310.3 200.5C310.2 200.5 313.3 209 319.8 210.3Z" fill="black"/>
<path fill-rule="evenodd" clip-rule="evenodd" d="M321.3 210.3C321.3 210.3 327.4 210.1 331.1 200.8C331.1 200.8 322.6 203.8 321.3 210.3Z" fill="black"/>
<path fill-rule="evenodd" clip-rule="evenodd" d="M317.4 193.2C317.4 193.2 315.8 187.3 305.8 185.9C305.9 185.8 310.8 193.4 317.4 193.2Z" fill="black"/>
<path fill-rule="evenodd" clip-rule="evenodd" d="M318.9 192.8C318.9 192.8 324.8 191.2 326.2 181.2C326.2 181.3 318.6 186.2 318.9 192.8Z" fill="black"/>
<path fill-rule="evenodd" clip-rule="evenodd" d="M312.5 176.5C312.5 176.5 309.4 171.3 299.4 172.6C299.4 172.6 306.2 178.5 312.5 176.5Z" fill="black"/>
<path fill-rule="evenodd" clip-rule="evenodd" d="M313.8 175.8C313.8 175.8 319 172.7 317.7 162.7C317.8 162.6 311.8 169.5 313.8 175.8Z" fill="black"/>
<path fill-rule="evenodd" clip-rule="evenodd" d="M304.4 160.8C304.4 160.8 300.2 156.4 290.7 159.8C290.7 159.8 298.7 164.1 304.4 160.8Z" fill="black"/>
<path fill-rule="evenodd" clip-rule="evenodd" d="M305.5 159.8C305.5 159.8 309.9 155.6 306.5 146.1C306.5 146.1 302.2 154.1 305.5 159.8Z" fill="black"/>
<path fill-rule="evenodd" clip-rule="evenodd" d="M293.8 146.2C293.8 146.2 288.8 142.8 280.2 148.2C280.2 148.2 288.9 150.7 293.8 146.2Z" fill="black"/>
<path fill-rule="evenodd" clip-rule="evenodd" d="M294.7 145C294.7 145 298.1 140 292.7 131.4C292.7 131.4 290.2 140.2 294.7 145Z" fill="black"/>
<path fill-rule="evenodd" clip-rule="evenodd" d="M280.5 133.8C280.5 133.8 275.1 131 267.3 137.5C267.3 137.5 276.2 138.9 280.5 133.8Z" fill="black"/>
<path fill-rule="evenodd" clip-rule="evenodd" d="M281.2 132.5C281.2 132.5 284 127.1 277.5 119.3C277.5 119.3 276.1 128.3 281.2 132.5Z" fill="black"/>
<path fill-rule="evenodd" clip-rule="evenodd" d="M265.2 123.9C265.2 123.9 259.6 121.6 252.3 128.6C252.3 128.5 261.3 129.2 265.2 123.9Z" fill="black"/>
<path fill-rule="evenodd" clip-rule="evenodd" d="M265.8 122.5C265.8 122.5 268.1 116.9 261.1 109.6C261.1 109.6 260.4 118.6 265.8 122.5Z" fill="black"/>
<path d="M216.8 318.8C240.1 318.1 263.1 310 281.1 295.2C290.1 287.9 297.8 279.1 303.9 269.3C310 259.5 314.7 248.7 317 237.4C321.9 214.9 319.5 190.6 309.3 169.8C304.2 159.4 297.5 149.8 289.3 141.5C281.1 133.3 271.5 126.4 261.1 121.2C261 121.1 260.9 121 261 120.9C261.1 120.8 261.2 120.7 261.3 120.8C271.9 125.7 281.7 132.5 290.2 140.6C298.7 148.7 305.6 158.5 310.9 169C316.2 179.5 319.6 191 321 202.7L321.5 207.1L321.7 211.5C321.9 214.4 321.7 217.4 321.6 220.3L321.4 224.7C321.4 226.2 321 227.6 320.8 229.1L320.1 233.5C319.9 235 319.7 236.4 319.3 237.8C314.4 261 300.8 281.9 282.4 296.7C263.8 311.6 240.1 319.2 216.8 318.8Z" fill="black"/>
<path d="M367.2 210.3L371.5 219.1L381.1 220.5L374.1 227.3L375.8 236.9L367.2 232.3L358.5 236.9L360.2 227.3L353.2 220.5L362.8 219.1L367.2 210.3Z" fill="black"/>
<path d="M65.5 211.8L69.8 220.6L79.4 222L72.4 228.8L74.1 238.4L65.5 233.8L56.8 238.4L58.5 228.8L51.5 222L61.2 220.6L65.5 211.8Z" fill="black"/>
<path d="M186.9 239.5H176.1C174.6 239.5 173.4 238.3 173.4 236.8C173.4 235.3 174.6 234.1 176.1 234.1H186.9C188.4 234.1 189.6 235.3 189.6 236.8C189.6 238.3 188.4 239.5 186.9 239.5Z" fill="#010101"/>
<path d="M274.5 239.5H267.8C266.3 239.5 265.1 238.3 265.1 236.8C265.1 235.3 266.3 234.1 267.8 234.1H272.3L275.9 214.7C275.9 204.8 267.4 196.3 257 196.3H239.3L230.7 234H246.2C247.7 234 248.9 235.2 248.9 236.7C248.9 238.2 247.7 239.4 246.2 239.4H227.3C226.5 239.4 225.7 239 225.2 238.4C224.7 237.8 224.5 236.9 224.7 236.1L234.5 193C234.8 191.8 235.9 190.9 237.1 190.9H257C270.4 190.9 281.2 201.8 281.2 215.1L277.1 237.1C276.9 238.6 275.8 239.5 274.5 239.5Z" fill="#010101"/>
<path d="M257 250.3C249.6 250.3 243.5 244.3 243.5 236.8C243.5 229.4 249.5 223.3 257 223.3C264.4 223.3 270.5 229.3 270.5 236.8C270.4 244.3 264.4 250.3 257 250.3ZM257 228.7C252.5 228.7 248.9 232.3 248.9 236.8C248.9 241.3 252.5 244.9 257 244.9C261.5 244.9 265.1 241.3 265.1 236.8C265.1 232.3 261.4 228.7 257 228.7Z" fill="#010101"/>
<path d="M197.7 250.3C190.3 250.3 184.2 244.3 184.2 236.8C184.2 229.4 190.2 223.3 197.7 223.3C205.2 223.3 211.2 229.3 211.2 236.8C211.2 244.3 205.1 250.3 197.7 250.3ZM197.7 228.7C193.2 228.7 189.6 232.3 189.6 236.8C189.6 241.3 193.2 244.9 197.7 244.9C202.2 244.9 205.8 241.3 205.8 236.8C205.8 232.3 202.2 228.7 197.7 228.7Z" fill="#010101"/>
<path d="M186.9 191H165.3C163.8 191 162.6 189.8 162.6 188.3C162.6 186.8 163.8 185.6 165.3 185.6H186.9C188.4 185.6 189.6 186.8 189.6 188.3C189.6 189.8 188.4 191 186.9 191Z" fill="#010101"/>
<path d="M186.9 207.2H160C158.5 207.2 157.3 206 157.3 204.5C157.3 203 158.5 201.8 160 201.8H186.9C188.4 201.8 189.6 203 189.6 204.5C189.6 206 188.4 207.2 186.9 207.2Z" fill="#010101"/>
<path d="M186.9 223.4H154.6C153.1 223.4 151.9 222.2 151.9 220.7C151.9 219.2 153.1 218 154.6 218H186.9C188.4 218 189.6 219.2 189.6 220.7C189.6 222.2 188.4 223.4 186.9 223.4Z" fill="#010101"/>
<path d="M227.3 239.5H208.4C206.9 239.5 205.7 238.3 205.7 236.8C205.7 235.3 206.9 234.1 208.4 234.1H225.1L237.3 180.2H176C174.5 180.2 173.3 179 173.3 177.5C173.3 176 174.5 174.8 176 174.8H240.7C241.5 174.8 242.3 175.2 242.8 175.8C243.3 176.4 243.5 177.3 243.3 178.1L230 237.4C229.7 238.7 228.6 239.5 227.3 239.5Z" fill="#010101"/>
</svg>
