<svg width="27" height="30" viewBox="0 0 27 30" fill="none" xmlns="http://www.w3.org/2000/svg">
<path d="M9.40705 9.80701L4.28725 7.7591C2.75086 7.14457 1.75781 5.67855 1.75781 4.02375C1.75781 1.80504 3.56285 0 5.78156 0C7.43637 0 8.90238 0.993047 9.51691 2.52943L11.3279 7.05703C11.5082 7.50762 11.2884 8.0192 10.8379 8.19943C10.3915 8.37885 9.87568 8.16164 9.69545 7.70936L7.88443 3.18176C7.5385 2.31656 6.71367 1.75781 5.78156 1.75781C4.53187 1.75781 3.51562 2.77406 3.51562 4.02375C3.51562 4.95586 4.07438 5.78068 4.93957 6.12662L10.0594 8.17453C10.51 8.35477 10.7297 8.86635 10.5495 9.31693C10.3673 9.77355 9.84902 9.98525 9.40705 9.80701V9.80701Z" fill="#FABE2C"/>
<path d="M15.8178 9.31693C15.6376 8.86635 15.8573 8.35476 16.3079 8.17453L21.4277 6.12662C22.2929 5.78068 22.8516 4.95586 22.8516 4.02375C22.8516 2.77406 21.8354 1.75781 20.5857 1.75781C19.6536 1.75781 18.8288 2.31656 18.4828 3.18176L16.6718 7.70935C16.4907 8.1617 15.974 8.37797 15.5294 8.19943C15.0788 8.0192 14.8591 7.50762 15.0393 7.05703L16.8503 2.52943C17.4649 0.993047 18.9309 0 20.5857 0C22.8044 0 24.6094 1.80504 24.6094 4.02375C24.6094 5.67855 23.6164 7.14457 22.08 7.7591L16.9602 9.80701C16.5169 9.98578 15.9996 9.77238 15.8178 9.31693V9.31693Z" fill="#FF9100"/>
<path d="M17.5781 7.91016V8.78906L15.8203 9.66797H10.5469L8.78906 8.78906V7.91016C8.78906 5.48437 10.7578 3.51562 13.1836 3.51562C15.6094 3.51562 17.5781 5.48437 17.5781 7.91016Z" fill="#FABE2C"/>
<path d="M15.8203 9.66797H13.1836V3.51562C15.6094 3.51562 17.5781 5.48437 17.5781 7.91016V8.78906L15.8203 9.66797Z" fill="#FF9100"/>
<path d="M24.6094 14.0625V29.1211C24.6094 29.6132 24.2227 30 23.7305 30H17.5781L15.8203 28.2422H10.5469L8.78906 30H2.63672C2.14447 30 1.75781 29.6132 1.75781 29.1211V14.0625H24.6094Z" fill="#E63950"/>
<path d="M24.6094 14.0625V29.1211C24.6094 29.6132 24.2227 30 23.7305 30H17.5781L15.8203 28.2422H13.1836V14.0625H24.6094Z" fill="#AE2538"/>
<path d="M26.3672 9.66797V14.9414C26.3672 15.4335 25.9805 15.8203 25.4883 15.8203H0.878906C0.38666 15.8203 0 15.4335 0 14.9414V9.66797C0 9.17572 0.38666 8.78906 0.878906 8.78906H8.78906L10.5469 10.5469H15.8203L17.5781 8.78906H25.4883C25.9805 8.78906 26.3672 9.17572 26.3672 9.66797Z" fill="#FF6C6C"/>
<path d="M26.3672 9.66797V14.9414C26.3672 15.4335 25.9805 15.8203 25.4883 15.8203H13.1836V10.5469H15.8203L17.5781 8.78906H25.4883C25.9805 8.78906 26.3672 9.17572 26.3672 9.66797Z" fill="#E63950"/>
<path d="M8.78906 8.78906H17.5781V30H8.78906V8.78906Z" fill="#FED843"/>
<path d="M13.1836 8.78906H17.5781V30H13.1836V8.78906Z" fill="#FABE2C"/>
</svg>
